<svg width="20" height="20" viewBox="0 0 20 20" fill="none" xmlns="http://www.w3.org/2000/svg">
<path d="M15.2341 14.8928C15.4027 14.753 15.5674 14.6077 15.7238 14.4541C15.7596 14.4227 15.7955 14.386 15.8298 14.3517C15.8771 14.305 15.9236 14.2561 15.971 14.2072C16.0183 14.1583 16.0473 14.1261 16.0869 14.0834C16.151 14.0131 16.2151 13.9412 16.2761 13.867C16.3089 13.8296 16.3401 13.7906 16.3715 13.7539C16.4157 13.7027 16.4576 13.6507 16.4981 13.6011L16.5972 13.4742L16.7498 13.2654C16.862 13.1043 16.9703 12.9391 17.0733 12.7702C17.0877 12.7496 17.1015 12.7274 17.1144 12.706C17.1274 12.6846 17.1534 12.6387 17.1724 12.6036C17.1749 12.5974 17.1786 12.5917 17.1831 12.5867C17.3485 12.3002 17.4953 12.0033 17.6225 11.6978L17.637 11.6626C17.6606 11.6069 17.6835 11.5503 17.7057 11.4937C17.7278 11.4372 17.756 11.3653 17.7819 11.3011C17.8079 11.2369 17.8269 11.1719 17.849 11.1062C17.8941 10.9762 17.9368 10.844 17.9726 10.711C17.9917 10.6453 18.0085 10.5781 18.026 10.51C18.0771 10.3097 18.1229 10.1041 18.1588 9.8985C18.1694 9.83733 18.1809 9.77622 18.19 9.71348C18.1892 9.70287 18.1908 9.69209 18.1946 9.68213C18.203 9.6355 18.2091 9.58657 18.2152 9.53929C18.2213 9.49184 18.2259 9.45516 18.2305 9.41081C18.235 9.36652 18.2419 9.31379 18.2465 9.26487C18.2541 9.19603 18.2602 9.12724 18.2655 9.05846C18.2709 8.98968 18.2747 8.94381 18.2763 8.88575C18.2763 8.84139 18.2824 8.79628 18.2824 8.75046C18.2824 8.70453 18.2869 8.66938 18.2869 8.62655V8.41024C18.2869 6.17974 17.4026 4.04052 15.8286 2.46333C14.2545 0.886084 12.1195 0 9.89347 0C7.66736 0 5.53249 0.886084 3.95838 2.46333C2.38433 4.04052 1.5 6.17974 1.5 8.41024C1.5 8.55625 1.5 8.70072 1.51143 8.84292C1.51143 8.90783 1.51906 8.9721 1.52363 9.03632L1.53278 9.14939C1.5397 9.22579 1.54732 9.30225 1.55647 9.37876C1.55547 9.39874 1.55752 9.4189 1.56257 9.43829C1.574 9.5247 1.58467 9.61106 1.59916 9.69742C1.62895 9.90617 1.66782 10.1125 1.71438 10.3166L1.89441 11.0947L1.92566 11.0565L2.39864 10.4763C2.6023 10.2271 2.82278 9.98409 3.05464 9.75173C3.62801 9.17113 4.27269 8.66592 4.97319 8.24825L5.17989 8.13049L5.18751 8.12592V8.04261C5.24005 7.35906 5.44019 6.69508 5.77408 6.09666C6.10797 5.49831 6.56764 4.97974 7.12131 4.57695C7.67498 4.17416 8.3094 3.89674 8.98064 3.76393C9.65188 3.63111 10.3439 3.64599 11.0088 3.80763C11.6738 3.96928 12.2957 4.27376 12.8316 4.70004C13.3674 5.12633 13.8044 5.66423 14.1124 6.27647C14.4202 6.88866 14.5917 7.56066 14.6148 8.24585C14.6379 8.93103 14.5122 9.61306 14.2462 10.2448C14.218 10.3151 14.1851 10.3862 14.1508 10.4549C14.1165 10.5237 14.0852 10.5909 14.047 10.659C14.0112 10.7248 13.9708 10.7906 13.9334 10.8547C13.8153 11.0493 13.6834 11.2352 13.5391 11.4111C13.4673 11.5005 13.391 11.586 13.3101 11.6672C13.227 11.7505 13.1508 11.8285 13.0661 11.9041C13.0111 11.9569 12.9532 12.0058 12.896 12.0532C12.8387 12.1006 12.777 12.1472 12.7175 12.1923C12.658 12.2374 12.5954 12.2833 12.5329 12.3238C12.391 12.4201 12.2441 12.5086 12.0927 12.589C12.0096 12.6334 11.9271 12.6739 11.8425 12.7129C11.8406 12.7121 11.8383 12.7121 11.8364 12.7129C11.2277 12.9943 10.5654 13.1401 9.89499 13.1401C9.12506 13.1394 8.37701 13.397 7.77009 13.8716C7.16318 14.3464 6.7323 15.0111 6.54612 15.7596L6.46989 16.0806V16.0913L6.78795 16.219C6.86424 16.2503 6.94053 16.2756 7.01682 16.3031C7.20903 16.3742 7.40665 16.4384 7.60573 16.495C7.73849 16.5324 7.87119 16.5667 8.00776 16.5981C8.21141 16.647 8.41735 16.686 8.62411 16.7159C8.69506 16.7265 8.76373 16.7364 8.83386 16.7456C8.90405 16.7548 8.97501 16.7632 9.0452 16.7693C9.18323 16.7831 9.32362 16.7945 9.46476 16.8022H9.50059C9.63411 16.8083 9.76833 16.8114 9.90262 16.8114C10.0369 16.8114 10.1719 16.8114 10.3054 16.8022H10.3413C10.4823 16.7945 10.6227 16.7831 10.7608 16.7693C10.831 16.7632 10.9011 16.7548 10.9721 16.7456C11.0431 16.7364 11.1109 16.7265 11.1818 16.7159C11.3894 16.686 11.5946 16.6462 11.7982 16.5981C11.934 16.5667 12.0675 16.5324 12.2003 16.495C12.2834 16.4712 12.3665 16.4459 12.4474 16.4185C12.5282 16.3909 12.6106 16.3657 12.6915 16.3375C12.8013 16.3007 12.9097 16.261 13.0158 16.2182C13.0676 16.1976 13.1194 16.1754 13.1683 16.1525C13.4814 16.0214 13.7857 15.8701 14.0791 15.6992L14.2531 15.5952L14.4255 15.4874C14.4751 15.4562 14.5239 15.4225 14.578 15.3897C14.7512 15.2727 14.9221 15.1482 15.086 15.0182L15.2341 14.8928Z" fill="url(#paint0_radial_2569_16354)"/>
<path fill-rule="evenodd" clip-rule="evenodd" d="M7.52716 12.4983C7.36397 12.5945 7.20635 12.6999 7.055 12.8139C6.32712 13.3593 5.77169 14.1035 5.45533 14.9573C5.39505 15.1182 5.34409 15.2825 5.30275 15.4495C5.20893 15.8244 5.16155 16.2095 5.16161 16.596V18.1656C5.16161 18.6522 4.96874 19.1188 4.62541 19.4628C4.28202 19.8068 3.81637 20.0001 3.33084 20.0001C2.84525 20.0001 2.3796 19.8068 2.03627 19.4628C1.69293 19.1188 1.50001 18.6522 1.50001 18.1656V16.596C1.49925 15.9542 1.57167 15.3144 1.71592 14.6889C1.89301 13.9221 2.17811 13.1846 2.56267 12.4983C2.59926 12.4311 2.63667 12.3653 2.67555 12.2995C3.0333 11.6991 3.46348 11.1451 3.95634 10.65C4.23816 10.3694 4.53839 10.1079 4.85498 9.86732C5.00756 9.75647 5.16008 9.64803 5.31266 9.54784C5.77556 9.24383 6.26807 8.98768 6.78262 8.78344C8.78239 7.99081 11.0083 7.99081 13.0082 8.78344L13.3263 8.90958L13.2431 9.24207C13.0595 9.98854 12.6319 10.6518 12.0286 11.1266C11.4251 11.6013 10.6805 11.86 9.9133 11.8615C9.07558 11.8575 8.25194 12.0773 7.52716 12.4983ZM17.389 14.5315L17.8932 13.9146L18.0679 14.6912C18.2115 15.3162 18.2837 15.9555 18.2831 16.5968V18.1656C18.2831 18.6522 18.0902 19.1188 17.7469 19.4628C17.4036 19.8068 16.9378 20.0001 16.4523 20.0001C15.9667 20.0001 15.5011 19.8068 15.1577 19.4628C14.8144 19.1188 14.6215 18.6522 14.6215 18.1656V16.8651L14.8137 16.7512C15.5137 16.3353 16.1585 15.8328 16.733 15.2553C16.9643 15.0259 17.1834 14.7842 17.389 14.5315Z" fill="url(#paint1_linear_2569_16354)"/>
<defs>
<radialGradient id="paint0_radial_2569_16354" cx="0" cy="0" r="1" gradientUnits="userSpaceOnUse" gradientTransform="translate(1437.64 -525.19) rotate(-80.2092) scale(1409.81 1413.8)">
<stop stop-color="#4C81E8"/>
<stop offset="0.739583" stop-color="#4F87F5"/>
<stop offset="1" stop-color="#6096FF"/>
</radialGradient>
<linearGradient id="paint1_linear_2569_16354" x1="873.287" y1="288.297" x2="715.837" y2="918.61" gradientUnits="userSpaceOnUse">
<stop stop-color="#5C5C5C"/>
<stop offset="0.296449" stop-color="#454545"/>
<stop offset="1" stop-color="#383838"/>
</linearGradient>
</defs>
</svg>
