<svg width="32" height="32" viewBox="0 0 32 32" fill="none" xmlns="http://www.w3.org/2000/svg">
<path d="M13.3334 11.667H25.3334C26.2539 11.667 27.0001 12.4132 27.0001 13.3337V25.3337C27.0001 26.2541 26.2539 27.0003 25.3334 27.0003H13.3334C12.4129 27.0003 11.6667 26.2541 11.6667 25.3337V13.3337C11.6667 12.4132 12.4129 11.667 13.3334 11.667Z" stroke="#696679" stroke-width="2" stroke-linecap="round" stroke-linejoin="round"/>
<path d="M19.9999 7.58942C19.9999 6.99098 19.7622 6.41705 19.339 5.9939C18.9159 5.57074 18.3419 5.33301 17.7435 5.33301L7.58966 5.33301C6.99123 5.33301 6.4173 5.57074 5.99414 5.99389C5.57098 6.41705 5.33325 6.99098 5.33325 7.58942L5.33325 17.7433C5.33325 18.3417 5.57098 18.9156 5.99414 19.3388C6.4173 19.7619 6.99122 19.9997 7.58966 19.9997" stroke="#696679" stroke-width="2" stroke-linecap="round" stroke-linejoin="round"/>
</svg>
