<svg width="16" height="16" viewBox="0 0 16 16" fill="none" xmlns="http://www.w3.org/2000/svg">
<path d="M7.05767 4.22871L8.47188 2.81449C8.78141 2.50496 9.14888 2.25943 9.5533 2.09192C9.95771 1.9244 10.3912 1.83818 10.8289 1.83818C11.2666 1.83818 11.7001 1.9244 12.1045 2.09192C12.5089 2.25943 12.8764 2.50496 13.1859 2.81449C13.4955 3.12402 13.741 3.49148 13.9085 3.8959C14.076 4.30032 14.1622 4.73377 14.1622 5.17151C14.1622 5.60925 14.076 6.04271 13.9085 6.44713C13.741 6.85154 13.4955 7.21901 13.1859 7.52854L11.7717 8.94275M8.94329 11.7712L7.52908 13.1854C7.21955 13.4949 6.85208 13.7405 6.44766 13.908C6.04325 14.0755 5.60979 14.1617 5.17205 14.1617C4.288 14.1617 3.44015 13.8105 2.81503 13.1854C2.18991 12.5603 1.83872 11.7124 1.83872 10.8284C1.83872 9.94431 2.18991 9.09647 2.81503 8.47135L4.22924 7.05713" stroke="#37334C" stroke-width="1.2" stroke-linecap="round" stroke-linejoin="round"/>
<path d="M4.66699 4.66675L6.08121 6.08096" stroke="#37334C" stroke-width="1.2" stroke-linecap="round" stroke-linejoin="round"/>
<path d="M10 10L11.4142 11.4142" stroke="#37334C" stroke-width="1.2" stroke-linecap="round" stroke-linejoin="round"/>
</svg>
