<svg width="28" height="28" viewBox="0 0 28 28" fill="none" xmlns="http://www.w3.org/2000/svg">
<path d="M18.3012 10.1008C18.5691 10.1008 18.8371 10.1008 19.1051 10.1445C18.3477 6.70469 14.6809 4.15625 10.4781 4.15625C5.78594 4.15625 1.94141 7.37461 1.94141 11.3969C1.94141 13.7211 3.19375 15.6871 5.3375 17.1637L4.48711 19.7121L7.48125 18.2383C8.55312 18.4625 9.40352 18.684 10.4754 18.684C10.7434 18.684 11.0113 18.684 11.3258 18.6402C11.148 18.0578 11.0578 17.4781 11.0578 16.852C11.0605 13.1414 14.2352 10.1008 18.3012 10.1008ZM13.6965 7.77656C14.3664 7.77656 14.7684 8.22227 14.7684 8.84844C14.7684 9.47461 14.3227 9.92031 13.6965 9.92031C13.0266 9.92031 12.4004 9.47188 12.4004 8.84844C12.4004 8.17852 13.073 7.77656 13.6965 7.77656ZM7.78203 9.77539C7.10664 9.77539 6.475 9.33242 6.475 8.71445C6.475 8.05 7.15039 7.65352 7.78203 7.65352C8.41367 7.65352 8.86211 8.09648 8.86211 8.71445C8.86484 9.33516 8.41367 9.77539 7.78203 9.77539Z" fill="#24DB5A"/>
<path d="M26.0805 16.7613C26.0805 13.3188 22.6844 10.5488 18.8398 10.5488C14.7711 10.5488 11.5527 13.3652 11.5527 16.7613C11.5527 20.2039 14.7711 22.9738 18.8398 22.9738C19.6902 22.9738 20.5379 22.7496 21.3883 22.5281L23.7125 23.8242L23.0863 21.6777C24.7844 20.3816 26.0805 18.6836 26.0805 16.7613ZM16.4691 15.6895C16.0672 15.6895 15.6188 15.2875 15.6188 14.8391C15.6188 14.4371 16.0645 13.9887 16.4691 13.9887C17.0953 13.9887 17.541 14.4344 17.541 14.8391C17.541 15.2875 17.1391 15.6895 16.4691 15.6895ZM21.3363 15.4816C20.9316 15.4816 20.4805 15.0824 20.4805 14.6422C20.4805 14.243 20.9316 13.8027 21.3363 13.8027C21.968 13.8027 22.4164 14.2457 22.4164 14.6422C22.4164 15.0852 21.968 15.4816 21.3363 15.4816Z" fill="#24DB5A"/>
</svg>
